<svg width="25" height="24" viewBox="0 0 25 24" fill="none" xmlns="http://www.w3.org/2000/svg">
<path fill-rule="evenodd" clip-rule="evenodd" d="M15.4507 4.779C14.6265 4.44557 13.785 4.23036 12.9067 4.08182C11.9631 3.96424 10.8782 3.98472 10.0573 4.07171C9.16184 4.15255 8.29686 4.30411 7.47259 4.67796C4.91837 5.82984 2.99506 7.50712 2.54731 10.4171C2.46611 10.9449 2.50552 11.4771 2.54731 12.0237C2.74066 13.701 3.68705 14.8831 5.11171 15.7117C6.23109 16.3584 7.47259 16.6009 8.73444 16.7827C10.8511 17.0859 12.7947 17.7224 13.965 19.7028C14.1945 19.9521 14.311 20.0059 14.5349 20.0868C14.8086 20.1978 15.1566 20.2387 15.349 20.0868C15.9867 19.5626 16.6701 19.0917 17.3536 18.6207C18.0007 18.1748 18.6479 17.7288 19.2566 17.2374C19.9893 16.6413 20.6609 15.9744 21.0476 15.065C21.587 13.802 21.6073 12.4885 21.302 11.2153C20.549 8.04264 18.4527 5.9915 15.4507 4.779ZM13.5104 7.31864C13.5533 7.1252 13.5961 6.93204 13.6395 6.73939C13.6395 6.70843 13.6474 6.67668 13.6553 6.64503C13.6757 6.56304 13.6959 6.48166 13.5784 6.41605C13.4118 6.34161 13.3339 6.45677 13.2664 6.55642C13.2515 6.5785 13.237 6.59981 13.2223 6.61814C12.6321 7.35069 12.0418 8.08576 11.4516 8.82084C10.8614 9.55592 10.2712 10.291 9.68096 11.0235C9.66921 11.0372 9.65558 11.0508 9.64165 11.0647C9.58323 11.123 9.51972 11.1864 9.56903 11.2761C9.63008 11.3873 9.74202 11.4176 9.87431 11.4176H11.0446C11.4618 11.4176 11.5941 11.5894 11.4923 12.0036C11.2981 12.7841 11.1207 13.5729 10.9449 14.3549C10.9272 14.4334 10.9096 14.5119 10.8919 14.5903C10.8883 14.6048 10.884 14.6199 10.8797 14.6353C10.8478 14.7488 10.8109 14.8805 10.9632 14.9338C11.1067 14.9814 11.1783 14.8859 11.2625 14.7734C11.2678 14.7663 11.2732 14.7592 11.2786 14.752C11.535 14.4203 11.7973 14.1003 12.0611 13.7787C12.1428 13.679 12.2246 13.5792 12.3064 13.4789L14.8708 10.3264C14.8737 10.3226 14.8766 10.3187 14.8796 10.3148C14.9401 10.2351 15.0206 10.1292 14.9624 10.0232C14.9108 9.91226 14.8011 9.91668 14.7008 9.92072C14.6824 9.92146 14.6643 9.92219 14.6469 9.92219H13.4767C13.0595 9.92219 12.9373 9.74032 13.0391 9.32605C13.2128 8.65985 13.3619 7.98757 13.5104 7.31864Z" fill="#F03246"/>
</svg>
