<svg width="216" height="44" viewBox="0 0 216 44" fill="none" xmlns="http://www.w3.org/2000/svg">
<g clip-path="url(#clip0_536_16884)">
<path d="M28.4212 0.253017C23.1501 -0.428983 17.9069 0.275016 13.2636 2.27702C8.65906 4.26802 4.95436 7.39202 2.54381 11.3135C-0.383289 16.0875 -0.79986 21.1035 1.37741 25.432C3.98792 30.624 8.83124 33.385 16.6739 34.397C27.1826 35.75 29.943 39.952 31.2649 41.9705C31.8648 42.878 32.4813 43.8185 33.7033 43.978C34.1476 44.033 34.8197 43.9945 35.5028 43.483C36.4804 42.746 37.4524 42.0365 38.3911 41.3545C44.4508 36.9325 50.8437 33.913 51.7491 26.422C52.4934 20.2895 50.4438 14.179 45.9838 9.22352C41.5848 4.33402 35.3473 1.14402 28.4212 0.253017ZM34.2254 16.9785L23.75 29.964C23.339 30.4755 22.5392 30.063 22.6836 29.414L24.5387 21.274C24.6387 20.834 24.3165 20.416 23.8778 20.416H19.7287C19.1566 20.416 18.84 19.723 19.2122 19.272L29.6875 6.28652C30.0985 5.77502 30.8984 6.18752 30.7539 6.83652L28.8988 14.9765C28.7988 15.4165 29.121 15.8345 29.5542 15.8345H33.7033C34.2754 15.8345 34.5919 16.5275 34.2254 16.9785Z" fill="#F03246"/>
<path d="M171.527 13.156C166.517 13.156 162.584 17.182 162.584 22.429C162.584 27.676 166.522 31.7405 171.494 31.7405C176.465 31.7405 180.475 27.6375 180.475 22.429C180.475 17.2205 176.503 13.156 171.532 13.156M171.499 30.0025C167.489 30.0025 164.451 26.752 164.451 22.4675C164.451 18.183 167.489 14.894 171.532 14.894C175.576 14.894 178.614 18.1445 178.614 22.4675C178.614 26.7905 175.504 30.0025 171.494 30.0025" fill="#F03246"/>
<path d="M190.456 13.156C188.096 13.156 186.196 14.1515 185.018 15.818V14.08C185.018 13.563 184.624 13.156 184.124 13.156C183.624 13.156 183.23 13.563 183.23 14.08V30.811C183.23 31.328 183.624 31.735 184.124 31.735C184.624 31.735 185.018 31.328 185.018 30.811V20.207C185.018 17.105 187.201 14.8885 190.173 14.8885C193.144 14.8885 195.005 16.995 195.005 20.207V30.811C195.005 31.328 195.399 31.735 195.899 31.735C196.399 31.735 196.793 31.328 196.793 30.811V20.097C196.793 15.851 194.327 13.1505 190.462 13.1505" fill="#F03246"/>
<path d="M208.202 13.156C203.369 13.156 199.542 17.2205 199.542 22.4675C199.542 27.7145 203.442 31.7405 208.524 31.7405C210.956 31.7405 213.1 30.8165 214.822 29.0455C215.144 28.71 215.25 28.49 215.25 28.1985C215.25 27.72 214.928 27.346 214.461 27.346C214.211 27.346 214.034 27.456 213.784 27.7145C212.462 29.1555 210.529 30.0025 208.524 30.0025C205.391 30.0025 201.392 27.852 201.392 22.209C201.392 18.2985 204.358 14.8555 208.202 14.8555C211.779 14.8555 214.211 17.5505 214.178 21.208H203.403C202.947 21.208 202.581 21.5875 202.581 22.055C202.581 22.5225 202.947 22.9075 203.403 22.9075H214.889C215.639 22.9075 216 22.462 216 21.6865V21.241C216 16.5495 212.745 13.1505 208.202 13.1505" fill="#F03246"/>
<path d="M70.4559 31.856C73.5385 31.856 76.6212 30.305 78.1986 27.9125C78.5929 27.2855 78.754 25.9105 78.754 25.091V22.781C78.754 21.692 77.9875 20.9055 76.9378 20.9055H71.8778C70.928 20.9055 70.2171 21.428 70.2171 22.352C70.2171 23.276 70.928 23.8755 71.8778 23.8755H75.1937V26.4165C74.194 27.775 72.5332 28.567 70.6114 28.567C67.1845 28.567 64.8183 26.1195 64.8183 22.5555C64.8183 18.9915 67.1123 16.654 70.4004 16.654C71.9722 16.654 73.1997 17.1765 74.3161 18.304C74.8438 18.9035 75.2548 19.1345 75.8047 19.1345C76.6989 19.1345 77.4376 18.3755 77.4376 17.4735C77.4376 16.918 77.1988 16.401 76.6101 15.785C75.1882 14.234 72.8165 13.255 70.4448 13.255C65.2016 13.255 61.147 17.3085 61.147 22.5555C61.147 27.8025 65.2016 31.856 70.4448 31.856" fill="#F03246"/>
<path d="M89.7736 13.3265C84.7525 13.3265 80.8867 17.391 80.8867 22.649C80.8867 27.907 84.8191 31.933 90.1623 31.933C92.3063 31.933 94.2336 31.2785 95.8888 30.008C96.5553 29.502 96.7997 29.0675 96.7997 28.413C96.7997 27.5055 96.1332 26.818 95.2556 26.818C94.939 26.818 94.6224 26.961 94.3058 27.181C93.145 28.0885 91.7398 28.5615 90.2679 28.5615C87.5241 28.5615 84.5636 26.7575 84.5636 22.561C84.5636 18.3645 87.1741 16.555 89.6736 16.555C92.173 16.555 94.0281 18.3315 94.1003 20.9055H87.5574C86.6687 20.9055 86.0078 21.538 86.0078 22.407C86.0078 23.276 86.6743 23.881 87.5574 23.881H95.5444C96.8441 23.881 97.6551 23.0835 97.6551 21.78V21.5985C97.6551 16.8135 94.3836 13.332 89.7847 13.332" fill="#F03246"/>
<path d="M120.883 13.255C119.828 13.255 119.089 14.069 119.089 15.1305V29.9805C119.089 31.042 119.855 31.856 120.883 31.856C121.91 31.856 122.649 31.042 122.649 29.9805V15.1305C122.649 14.069 121.883 13.255 120.883 13.255Z" fill="#F03246"/>
<path d="M127.615 22.0385L132.858 16.192C133.225 15.785 133.386 15.4055 133.386 14.9655C133.386 14.014 132.647 13.255 131.78 13.255C131.253 13.255 130.886 13.4475 130.492 13.8545L124.221 20.845C123.904 21.197 123.721 21.6095 123.721 22.0165C123.721 22.451 123.904 22.8855 124.193 23.243L130.803 31.1025C131.197 31.592 131.697 31.867 132.225 31.867C133.119 31.867 133.886 31.053 133.886 30.1235C133.886 29.744 133.752 29.392 133.436 29.007L127.615 22.044V22.0385Z" fill="#F03246"/>
<path d="M137.868 13.255C136.813 13.255 136.074 14.069 136.074 15.1305V29.9805C136.074 31.042 136.813 31.856 137.868 31.856C138.924 31.856 139.634 31.042 139.634 29.9805V15.1305C139.634 14.069 138.896 13.255 137.868 13.255Z" fill="#F03246"/>
<path d="M108.741 13.3265C103.72 13.3265 99.8545 17.391 99.8545 22.649C99.8545 27.907 103.787 31.933 109.13 31.933C111.274 31.933 113.201 31.2785 114.857 30.008C115.523 29.502 115.767 29.0675 115.767 28.413C115.767 27.5055 115.101 26.818 114.223 26.818C113.907 26.818 113.59 26.961 113.274 27.181C112.113 28.0885 110.708 28.5615 109.236 28.5615C106.492 28.5615 103.531 26.7575 103.531 22.561C103.531 18.3645 106.142 16.555 108.641 16.555C111.141 16.555 112.996 18.3315 113.068 20.9055H106.525C105.636 20.9055 104.976 21.538 104.976 22.407C104.976 23.276 105.642 23.881 106.525 23.881H114.512C115.812 23.881 116.617 23.0835 116.617 21.78V21.5985C116.617 16.8135 113.346 13.332 108.747 13.332" fill="#F03246"/>
<path d="M150.926 13.3265C145.905 13.3265 142.04 17.391 142.04 22.649C142.04 27.907 145.972 31.933 151.315 31.933C153.459 31.933 155.386 31.2785 157.042 30.008C157.708 29.502 157.953 29.0675 157.953 28.413C157.953 27.5055 157.286 26.818 156.408 26.818C156.092 26.818 155.775 26.961 155.459 27.181C154.298 28.0885 152.893 28.5615 151.421 28.5615C148.677 28.5615 145.716 26.7575 145.716 22.561C145.716 18.3645 148.327 16.555 150.826 16.555C153.326 16.555 155.181 18.3315 155.253 20.9055H148.71C147.822 20.9055 147.161 21.538 147.161 22.407C147.161 23.276 147.827 23.881 148.71 23.881H156.697C157.997 23.881 158.808 23.0835 158.808 21.78V21.5985C158.808 16.8135 155.536 13.332 150.937 13.332" fill="#F03246"/>
</g>
<defs>
<clipPath id="clip0_536_16884">
<rect width="216" height="44" fill="white"/>
</clipPath>
</defs>
</svg>
