<svg width="146" height="30" viewBox="0 0 146 30" fill="none" xmlns="http://www.w3.org/2000/svg">
<path d="M145.912 15.4827C145.609 15.6909 145.268 15.6719 144.927 15.6719C142.505 15.6719 140.082 15.653 137.659 15.6719C137.148 15.6719 136.656 15.653 136.694 15.0095C136.732 14.4227 137.205 14.3281 137.735 14.3281C139.968 14.347 142.202 14.3281 144.435 14.3281C144.227 11.9432 143.319 10.7886 141.18 10.2587C140.082 9.99369 139.079 10.3912 138.227 11.0158C134.839 13.4763 135.729 18.5868 139.022 19.9685C140.631 20.6498 142.561 20.3849 143.83 19.1546C144.227 18.776 144.606 18.2461 145.23 18.7192C145.609 19.0032 145.306 19.8738 144.738 20.3092C142.524 21.9748 140.158 22.2587 137.735 20.8959C136.069 19.9685 135.066 18.511 134.744 16.5426C134.479 14.9148 134.707 13.4385 135.464 12C136.656 9.72871 138.965 8.63091 141.237 8.87697C143.508 9.12303 145.438 10.7886 145.779 13.0978C145.779 13.1356 145.874 13.1735 145.931 13.1924C145.912 13.9685 145.912 14.7256 145.912 15.4827Z" fill="white"/>
<path d="M103.192 16.429C102.303 16.429 101.432 16.429 100.543 16.429C99.7856 16.429 99.2367 16.0883 99.2367 15.3123C99.2367 14.5363 99.7666 14.1767 100.524 14.1767C101.697 14.1767 102.852 14.1577 104.025 14.1767C104.726 14.1956 104.839 13.9685 104.555 13.3628C104.025 12.1704 102.871 11.2429 101.792 11.3565C100.297 11.5268 99.2556 12.3407 98.7067 13.7981C97.9307 15.8801 98.8013 18.2271 100.713 19.0789C102.133 19.7035 103.495 19.4006 104.707 18.5489C105.388 18.0757 105.975 18.0568 106.505 18.6057C107.016 19.1167 106.808 20.0063 106.126 20.5741C104.006 22.3155 100.524 22.429 98.2146 20.6498C95.1105 18.2271 94.9212 13.2303 97.836 10.5804C99.4638 9.08518 101.47 8.72556 103.552 9.31231C105.653 9.91799 106.827 11.4133 107.148 13.571C107.205 13.9306 107.319 14.2902 107.319 14.6688C107.3 15.9558 106.808 16.4669 105.521 16.4858C104.763 16.429 103.969 16.429 103.192 16.429Z" fill="white"/>
<path d="M63.4826 14.1577C63.1987 12.8328 62.6309 11.9054 61.4006 11.5268C59.9432 11.0726 58.694 11.8864 57.9936 12.776C57.0851 13.9117 57.0283 16.3912 57.7854 17.6025C58.9589 19.4763 61.3816 19.9306 63.4447 18.5678C64.1829 18.0757 64.7318 18 65.2807 18.6814C65.716 19.2303 65.3943 20.1009 64.7129 20.612C62.063 22.5615 58.8075 22.2019 56.4605 20.1956C55.4006 19.2871 54.7949 18.0189 54.6435 16.6561C54.3785 14.2902 54.776 12.0757 56.7444 10.4101C58.5236 8.91482 60.6056 8.61198 62.6876 9.35015C64.6939 10.0505 65.8107 11.6782 65.9621 13.8738C65.981 14.2145 66.1514 14.5363 66.1324 14.858C66.0378 15.899 65.451 16.4101 64.3533 16.4101C62.7255 16.429 61.0788 16.429 59.451 16.4101C58.7129 16.4101 58.0693 16.2208 58.0504 15.2934C58.0315 14.4984 58.4857 14.1388 59.4889 14.1388C60.776 14.1577 62.1009 14.1577 63.4826 14.1577Z" fill="white"/>
<path d="M74.631 16.429C73.7414 16.429 72.8707 16.429 71.9811 16.429C71.2619 16.429 70.8833 16.0505 70.8644 15.3312C70.8266 14.5741 71.1862 14.1577 71.9622 14.1577C73.1357 14.1577 74.2903 14.1199 75.4638 14.1767C76.2776 14.2145 76.2966 13.7981 76.1073 13.2681C75.4448 11.47 73.3628 10.8833 71.7729 11.9054C70.3344 12.8328 69.7288 14.7256 70.1641 16.5047C70.5805 18.1514 71.9054 19.3249 73.6657 19.4196C74.5174 19.4574 75.3502 19.1546 76.1073 18.6814C76.5048 18.4353 76.8833 18.0189 77.4322 18.1893C78.3029 18.4353 78.5868 19.5331 77.9622 20.2145C76.6562 21.6152 74.9338 22.0694 73.1357 21.8801C70.7698 21.6341 68.8202 20.5174 67.8928 18.1893C66.4543 14.5931 67.8739 10.0505 72.1704 9.17982C76.3912 8.32808 79.1735 11.1293 78.8139 15.3502C78.7571 16.0694 78.1136 16.4101 77.3944 16.448C76.448 16.448 75.5395 16.429 74.631 16.429Z" fill="white"/>
<path d="M50.2524 14.1577C53.3565 14.101 53.2051 14.082 53.3186 17.1672C53.4322 19.8549 50.8202 21.3502 48.8896 21.6909C46.8265 22.0505 44.9338 21.6719 43.306 20.2145C42.3028 19.3249 41.6782 18.2271 41.3943 16.959C40.7319 13.9685 41.8486 11.3565 44.3092 9.84228C46.6183 8.40379 50.2713 8.64985 52.1073 11.0347C52.5237 11.5836 52.5426 12.3028 52.0505 12.8328C51.4827 13.4574 50.8202 13.3628 50.2524 12.7571C49.4385 11.8864 48.5111 11.4511 47.2808 11.5268C45.5016 11.6404 44.347 12.8517 44.0252 14.3281C43.4196 17.0726 44.9716 19.0221 47.2618 19.4006C48.2082 19.5521 50.0063 18.9464 50.4984 18.1704C50.8013 17.6782 50.7066 17.1104 50.5741 16.6183C50.4795 16.2587 49.9685 16.4858 49.6467 16.448C49.2492 16.4101 48.8139 16.5047 48.4164 16.429C47.6782 16.2776 47.3186 15.8044 47.4133 15.0095C47.489 14.2713 48.0189 14.2334 48.5489 14.1956C49.1167 14.1388 49.6846 14.1577 50.2524 14.1577Z" fill="white"/>
<path d="M124.921 10.429C126.435 9.04731 128.044 8.57413 129.899 9.06624C131.697 9.53943 132.776 10.9968 132.833 12.7571C132.909 15.4637 132.852 18.1514 132.852 20.858C132.852 21.2744 132.89 21.7287 132.265 21.7098C131.735 21.6719 131.527 21.3502 131.527 20.8202C131.527 18.4921 131.527 16.164 131.527 13.8549C131.527 11.9054 130.486 10.6183 128.612 10.2587C127.192 9.99369 125.356 11.4322 125.11 13.0221C124.713 15.6151 125.016 18.2082 124.921 20.8013C124.902 21.142 125.016 21.5584 124.58 21.6908C123.975 21.8612 123.615 21.5962 123.596 20.9527C123.577 20.2334 123.596 19.5142 123.596 18.776C123.596 15.918 123.596 13.0599 123.596 10.2019C123.596 9.97476 123.558 9.74763 123.615 9.53943C123.71 9.14195 123.937 8.87697 124.391 8.87697C124.864 8.8959 124.94 9.19873 124.921 9.57728C124.921 9.80441 124.921 10.0315 124.921 10.429Z" fill="white"/>
<path d="M90.1325 10.2208C90.1704 10.6183 90 10.9401 89.754 11.2429C88.7887 12.3407 87.8612 13.4763 86.8392 14.5174C86.366 15.0095 86.4606 15.2744 86.8392 15.7098C88.0127 17.0347 89.1483 18.3786 90.2082 19.7792C90.7382 20.4795 90.5489 21.0284 90.0379 21.5016C89.489 21.9937 88.8833 21.8991 88.3534 21.3502C86.7067 19.6467 85.2871 17.7729 83.7729 15.9558C83.0915 15.142 83.5836 14.3092 84.1704 13.6278C85.4196 12.2082 86.7256 10.8076 88.0127 9.40694C88.3723 9.00947 88.8455 8.82019 89.3944 9.06625C89.9243 9.29338 90.1893 9.653 90.1325 10.2208Z" fill="white"/>
<path d="M82.9591 15.388C82.9591 16.959 82.9591 18.53 82.9591 20.1009C82.9591 21.1798 82.4102 21.8991 81.6152 21.8801C80.8392 21.8612 80.3092 21.1798 80.3092 20.1577C80.3092 16.9779 80.3092 13.817 80.3092 10.6372C80.3092 9.61515 80.8202 8.93376 81.6152 8.91483C82.4102 8.89591 82.9591 9.59622 82.9591 10.694C82.9591 12.2461 82.9591 13.817 82.9591 15.388Z" fill="white"/>
<path d="M94.2965 15.4069C94.2965 17.0725 94.2965 18.7382 94.2965 20.4038C94.2965 21.4069 93.8422 21.918 93.0473 21.899C92.347 21.8612 91.8359 21.2744 91.8359 20.4416C91.8359 17.0725 91.8359 13.7224 91.8359 10.3533C91.8359 9.50157 92.328 8.95268 93.0662 8.93375C93.8801 8.91482 94.2775 9.36908 94.2775 10.3344C94.3154 12.0189 94.2965 13.7224 94.2965 15.4069Z" fill="white"/>
<path fill-rule="evenodd" clip-rule="evenodd" d="M20.837 0.406613C20.3142 0.28439 19.7902 0.161861 19.2681 0.0189274C17.489 0.0189274 15.7287 0.0189274 13.9685 0C12.3028 0.15142 10.694 0.435331 9.16088 1.13565C4.41009 3.29338 0.832808 6.43533 0 11.8864V14.8959C0.359621 18.0379 2.11987 20.2524 4.76972 21.8044C6.85174 23.0158 9.16088 23.47 11.5079 23.8107C15.4448 24.3785 19.0599 25.571 21.2366 29.2808C21.4637 29.6972 21.8801 29.8486 22.2965 30H23.8107C24.9969 29.018 26.268 28.1359 27.5393 27.2536C28.7429 26.4184 29.9467 25.5829 31.0789 24.6625C32.4416 23.5457 33.6909 22.2965 34.4101 20.5931C35.4133 18.2271 35.4511 15.7666 34.8833 13.3817C33.4827 7.43849 29.5836 3.59621 24 1.32492C22.9703 0.905394 21.9063 0.656644 20.837 0.406613ZM20.3907 6.08183C20.4705 5.7195 20.5503 5.3577 20.6309 4.99685C20.6309 4.93885 20.6456 4.87939 20.6602 4.82009C20.6982 4.66651 20.7358 4.51407 20.5174 4.39117C20.2075 4.25172 20.0625 4.46743 19.937 4.65411C19.9092 4.69546 19.8824 4.73539 19.8549 4.76972C18.7571 6.14192 17.6594 7.51884 16.5616 8.89577C15.4638 10.2728 14.366 11.6498 13.2681 13.0221C13.2463 13.0476 13.2209 13.0731 13.195 13.0991C13.0863 13.2084 12.9682 13.3271 13.0599 13.4953C13.1735 13.7035 13.3817 13.7603 13.6278 13.7603H15.8044C16.5804 13.7603 16.8265 14.082 16.6372 14.858C16.276 16.3201 15.9461 17.7977 15.619 19.2626C15.5861 19.4097 15.5533 19.5567 15.5205 19.7035C15.5137 19.7307 15.5058 19.7589 15.4978 19.7878C15.4385 20.0004 15.3698 20.247 15.653 20.347C15.9201 20.436 16.0531 20.2571 16.2098 20.0465C16.2197 20.0332 16.2296 20.0198 16.2397 20.0063C16.7166 19.3849 17.2046 18.7856 17.6951 18.183C17.847 17.9964 17.9992 17.8095 18.1514 17.6215L22.9211 11.7161C22.9265 11.709 22.9319 11.7018 22.9374 11.6945C23.05 11.5452 23.1997 11.3467 23.0915 11.1483C22.9955 10.9404 22.7915 10.9487 22.605 10.9562C22.5707 10.9576 22.537 10.959 22.5047 10.959H20.3281C19.5521 10.959 19.3249 10.6183 19.5142 9.84227C19.8372 8.59429 20.1147 7.33492 20.3907 6.08183Z" fill="white"/>
<path fill-rule="evenodd" clip-rule="evenodd" d="M115.609 21.7287C119.243 21.8612 122.082 18.7382 121.893 15.3312C122.063 11.6404 119.11 8.83912 115.741 8.8959C112.107 8.93375 109.609 11.7918 109.628 15.3312C109.647 18.8896 112.24 21.6151 115.609 21.7287ZM115.76 10.2208C112.902 10.5615 111.218 12.4543 111.123 15.2744C111.123 16.8644 111.596 18.0379 112.864 19.1924C114.984 21.142 117.918 20.5363 119.432 18.4921C120.738 16.7129 120.776 14.8202 119.924 12.8517C119.338 11.5079 117.123 10.0505 115.76 10.2208Z" fill="white"/>
</svg>
